<svg xmlns="http://www.w3.org/2000/svg" viewBox="0 0 1200 560"
     width="1200" height="560" fill="none" stroke="currentColor"
     stroke-linecap="round" stroke-linejoin="round" aria-hidden="true" focusable="false">
  <g class="torres-fondo" opacity="0.28" stroke-width="2.6">
    <path d="M-300.0,337.7 Q-150.0,366.3 0.0,337.7"/>
    <path d="M-329.4,385.6 Q-179.4,429.3 -29.4,385.6"/>
    <path d="M-270.6,385.6 Q-120.6,429.3 29.4,385.6"/>
    <path d="M-322.7,368.8 Q-172.7,412.5 -22.7,368.8"/>
    <path d="M-277.3,368.8 Q-127.3,412.5 22.7,368.8"/>
    <path d="M-315.1,352.0 Q-165.1,395.7 -15.1,352.0"/>
    <path d="M-284.9,352.0 Q-134.9,395.7 15.1,352.0"/>
    <path d="M0.0,337.7 Q150.0,366.3 300.0,337.7"/>
    <path d="M-29.4,385.6 Q120.6,429.3 270.6,385.6"/>
    <path d="M29.4,385.6 Q179.4,429.3 329.4,385.6"/>
    <path d="M-22.7,368.8 Q127.3,412.5 277.3,368.8"/>
    <path d="M22.7,368.8 Q172.7,412.5 322.7,368.8"/>
    <path d="M-15.1,352.0 Q134.9,395.7 284.9,352.0"/>
    <path d="M15.1,352.0 Q165.1,395.7 315.1,352.0"/>
    <path d="M300.0,337.7 Q450.0,366.3 600.0,337.7"/>
    <path d="M270.6,385.6 Q420.6,429.3 570.6,385.6"/>
    <path d="M329.4,385.6 Q479.4,429.3 629.4,385.6"/>
    <path d="M277.3,368.8 Q427.3,412.5 577.3,368.8"/>
    <path d="M322.7,368.8 Q472.7,412.5 622.7,368.8"/>
    <path d="M284.9,352.0 Q434.9,395.7 584.9,352.0"/>
    <path d="M315.1,352.0 Q465.1,395.7 615.1,352.0"/>
    <path d="M600.0,337.7 Q750.0,366.3 900.0,337.7"/>
    <path d="M570.6,385.6 Q720.6,429.3 870.6,385.6"/>
    <path d="M629.4,385.6 Q779.4,429.3 929.4,385.6"/>
    <path d="M577.3,368.8 Q727.3,412.5 877.3,368.8"/>
    <path d="M622.7,368.8 Q772.7,412.5 922.7,368.8"/>
    <path d="M584.9,352.0 Q734.9,395.7 884.9,352.0"/>
    <path d="M615.1,352.0 Q765.1,395.7 915.1,352.0"/>
    <path d="M900.0,337.7 Q1050.0,366.3 1200.0,337.7"/>
    <path d="M870.6,385.6 Q1020.6,429.3 1170.6,385.6"/>
    <path d="M929.4,385.6 Q1079.4,429.3 1229.4,385.6"/>
    <path d="M877.3,368.8 Q1027.3,412.5 1177.3,368.8"/>
    <path d="M922.7,368.8 Q1072.7,412.5 1222.7,368.8"/>
    <path d="M884.9,352.0 Q1034.9,395.7 1184.9,352.0"/>
    <path d="M915.1,352.0 Q1065.1,395.7 1215.1,352.0"/>
    <path d="M1200.0,337.7 Q1350.0,366.3 1500.0,337.7"/>
    <path d="M1170.6,385.6 Q1320.6,429.3 1470.6,385.6"/>
    <path d="M1229.4,385.6 Q1379.4,429.3 1529.4,385.6"/>
    <path d="M1177.3,368.8 Q1327.3,412.5 1477.3,368.8"/>
    <path d="M1222.7,368.8 Q1372.7,412.5 1522.7,368.8"/>
    <path d="M1184.9,352.0 Q1334.9,395.7 1484.9,352.0"/>
    <path d="M1215.1,352.0 Q1365.1,395.7 1515.1,352.0"/>
    <g transform="translate(-300,470) scale(0.42)">
      <path d="M-42,0 L-15,-205 L-12,-300"/>
      <path d="M42,0 L15,-205 L12,-300"/>
      <path d="M-12,-300 L0,-315 L12,-300"/>
      <path d="M-35.2,-52 L35.2,-52"/>
      <path d="M-28.3,-104 L28.3,-104"/>
      <path d="M-21.5,-156 L21.5,-156"/>
      <path d="M-15.0,-205 L15.0,-205"/>
      <path d="M-13.6,-250 L13.6,-250"/>
      <path d="M-12.0,-300 L12.0,-300"/>
      <path d="M-42.0,0 L35.2,-52"/>
      <path d="M42.0,0 L-35.2,-52"/>
      <path d="M-35.2,-52 L28.3,-104"/>
      <path d="M35.2,-52 L-28.3,-104"/>
      <path d="M-28.3,-104 L21.5,-156"/>
      <path d="M28.3,-104 L-21.5,-156"/>
      <path d="M-21.5,-156 L15.0,-205"/>
      <path d="M21.5,-156 L-15.0,-205"/>
      <path d="M-15.0,-205 L13.6,-250"/>
      <path d="M15.0,-205 L-13.6,-250"/>
      <path d="M-13.6,-250 L12.0,-300"/>
      <path d="M13.6,-250 L-12.0,-300"/>
      <path d="M-70,-215 L70,-215"/>
      <path d="M-70,-215 L-14.7,-231"/>
      <path d="M70,-215 L14.7,-231"/>
      <path d="M-70,-215 L-70,-201"/>
      <path d="M70,-215 L70,-201"/>
      <path d="M-54,-255 L54,-255"/>
      <path d="M-54,-255 L-13.4,-271"/>
      <path d="M54,-255 L13.4,-271"/>
      <path d="M-54,-255 L-54,-241"/>
      <path d="M54,-255 L54,-241"/>
      <path d="M-36,-295 L36,-295"/>
      <path d="M-36,-295 L-12.2,-311"/>
      <path d="M36,-295 L12.2,-311"/>
      <path d="M-36,-295 L-36,-281"/>
      <path d="M36,-295 L36,-281"/>
    </g>
    <g transform="translate(0,470) scale(0.42)">
      <path d="M-42,0 L-15,-205 L-12,-300"/>
      <path d="M42,0 L15,-205 L12,-300"/>
      <path d="M-12,-300 L0,-315 L12,-300"/>
      <path d="M-35.2,-52 L35.2,-52"/>
      <path d="M-28.3,-104 L28.3,-104"/>
      <path d="M-21.5,-156 L21.5,-156"/>
      <path d="M-15.0,-205 L15.0,-205"/>
      <path d="M-13.6,-250 L13.6,-250"/>
      <path d="M-12.0,-300 L12.0,-300"/>
      <path d="M-42.0,0 L35.2,-52"/>
      <path d="M42.0,0 L-35.2,-52"/>
      <path d="M-35.2,-52 L28.3,-104"/>
      <path d="M35.2,-52 L-28.3,-104"/>
      <path d="M-28.3,-104 L21.5,-156"/>
      <path d="M28.3,-104 L-21.5,-156"/>
      <path d="M-21.5,-156 L15.0,-205"/>
      <path d="M21.5,-156 L-15.0,-205"/>
      <path d="M-15.0,-205 L13.6,-250"/>
      <path d="M15.0,-205 L-13.6,-250"/>
      <path d="M-13.6,-250 L12.0,-300"/>
      <path d="M13.6,-250 L-12.0,-300"/>
      <path d="M-70,-215 L70,-215"/>
      <path d="M-70,-215 L-14.7,-231"/>
      <path d="M70,-215 L14.7,-231"/>
      <path d="M-70,-215 L-70,-201"/>
      <path d="M70,-215 L70,-201"/>
      <path d="M-54,-255 L54,-255"/>
      <path d="M-54,-255 L-13.4,-271"/>
      <path d="M54,-255 L13.4,-271"/>
      <path d="M-54,-255 L-54,-241"/>
      <path d="M54,-255 L54,-241"/>
      <path d="M-36,-295 L36,-295"/>
      <path d="M-36,-295 L-12.2,-311"/>
      <path d="M36,-295 L12.2,-311"/>
      <path d="M-36,-295 L-36,-281"/>
      <path d="M36,-295 L36,-281"/>
    </g>
    <g transform="translate(300,470) scale(0.42)">
      <path d="M-42,0 L-15,-205 L-12,-300"/>
      <path d="M42,0 L15,-205 L12,-300"/>
      <path d="M-12,-300 L0,-315 L12,-300"/>
      <path d="M-35.2,-52 L35.2,-52"/>
      <path d="M-28.3,-104 L28.3,-104"/>
      <path d="M-21.5,-156 L21.5,-156"/>
      <path d="M-15.0,-205 L15.0,-205"/>
      <path d="M-13.6,-250 L13.6,-250"/>
      <path d="M-12.0,-300 L12.0,-300"/>
      <path d="M-42.0,0 L35.2,-52"/>
      <path d="M42.0,0 L-35.2,-52"/>
      <path d="M-35.2,-52 L28.3,-104"/>
      <path d="M35.2,-52 L-28.3,-104"/>
      <path d="M-28.3,-104 L21.5,-156"/>
      <path d="M28.3,-104 L-21.5,-156"/>
      <path d="M-21.5,-156 L15.0,-205"/>
      <path d="M21.5,-156 L-15.0,-205"/>
      <path d="M-15.0,-205 L13.6,-250"/>
      <path d="M15.0,-205 L-13.6,-250"/>
      <path d="M-13.6,-250 L12.0,-300"/>
      <path d="M13.6,-250 L-12.0,-300"/>
      <path d="M-70,-215 L70,-215"/>
      <path d="M-70,-215 L-14.7,-231"/>
      <path d="M70,-215 L14.7,-231"/>
      <path d="M-70,-215 L-70,-201"/>
      <path d="M70,-215 L70,-201"/>
      <path d="M-54,-255 L54,-255"/>
      <path d="M-54,-255 L-13.4,-271"/>
      <path d="M54,-255 L13.4,-271"/>
      <path d="M-54,-255 L-54,-241"/>
      <path d="M54,-255 L54,-241"/>
      <path d="M-36,-295 L36,-295"/>
      <path d="M-36,-295 L-12.2,-311"/>
      <path d="M36,-295 L12.2,-311"/>
      <path d="M-36,-295 L-36,-281"/>
      <path d="M36,-295 L36,-281"/>
    </g>
    <g transform="translate(600,470) scale(0.42)">
      <path d="M-42,0 L-15,-205 L-12,-300"/>
      <path d="M42,0 L15,-205 L12,-300"/>
      <path d="M-12,-300 L0,-315 L12,-300"/>
      <path d="M-35.2,-52 L35.2,-52"/>
      <path d="M-28.3,-104 L28.3,-104"/>
      <path d="M-21.5,-156 L21.5,-156"/>
      <path d="M-15.0,-205 L15.0,-205"/>
      <path d="M-13.6,-250 L13.6,-250"/>
      <path d="M-12.0,-300 L12.0,-300"/>
      <path d="M-42.0,0 L35.2,-52"/>
      <path d="M42.0,0 L-35.2,-52"/>
      <path d="M-35.2,-52 L28.3,-104"/>
      <path d="M35.2,-52 L-28.3,-104"/>
      <path d="M-28.3,-104 L21.5,-156"/>
      <path d="M28.3,-104 L-21.5,-156"/>
      <path d="M-21.5,-156 L15.0,-205"/>
      <path d="M21.5,-156 L-15.0,-205"/>
      <path d="M-15.0,-205 L13.6,-250"/>
      <path d="M15.0,-205 L-13.6,-250"/>
      <path d="M-13.6,-250 L12.0,-300"/>
      <path d="M13.6,-250 L-12.0,-300"/>
      <path d="M-70,-215 L70,-215"/>
      <path d="M-70,-215 L-14.7,-231"/>
      <path d="M70,-215 L14.7,-231"/>
      <path d="M-70,-215 L-70,-201"/>
      <path d="M70,-215 L70,-201"/>
      <path d="M-54,-255 L54,-255"/>
      <path d="M-54,-255 L-13.4,-271"/>
      <path d="M54,-255 L13.4,-271"/>
      <path d="M-54,-255 L-54,-241"/>
      <path d="M54,-255 L54,-241"/>
      <path d="M-36,-295 L36,-295"/>
      <path d="M-36,-295 L-12.2,-311"/>
      <path d="M36,-295 L12.2,-311"/>
      <path d="M-36,-295 L-36,-281"/>
      <path d="M36,-295 L36,-281"/>
    </g>
    <g transform="translate(900,470) scale(0.42)">
      <path d="M-42,0 L-15,-205 L-12,-300"/>
      <path d="M42,0 L15,-205 L12,-300"/>
      <path d="M-12,-300 L0,-315 L12,-300"/>
      <path d="M-35.2,-52 L35.2,-52"/>
      <path d="M-28.3,-104 L28.3,-104"/>
      <path d="M-21.5,-156 L21.5,-156"/>
      <path d="M-15.0,-205 L15.0,-205"/>
      <path d="M-13.6,-250 L13.6,-250"/>
      <path d="M-12.0,-300 L12.0,-300"/>
      <path d="M-42.0,0 L35.2,-52"/>
      <path d="M42.0,0 L-35.2,-52"/>
      <path d="M-35.2,-52 L28.3,-104"/>
      <path d="M35.2,-52 L-28.3,-104"/>
      <path d="M-28.3,-104 L21.5,-156"/>
      <path d="M28.3,-104 L-21.5,-156"/>
      <path d="M-21.5,-156 L15.0,-205"/>
      <path d="M21.5,-156 L-15.0,-205"/>
      <path d="M-15.0,-205 L13.6,-250"/>
      <path d="M15.0,-205 L-13.6,-250"/>
      <path d="M-13.6,-250 L12.0,-300"/>
      <path d="M13.6,-250 L-12.0,-300"/>
      <path d="M-70,-215 L70,-215"/>
      <path d="M-70,-215 L-14.7,-231"/>
      <path d="M70,-215 L14.7,-231"/>
      <path d="M-70,-215 L-70,-201"/>
      <path d="M70,-215 L70,-201"/>
      <path d="M-54,-255 L54,-255"/>
      <path d="M-54,-255 L-13.4,-271"/>
      <path d="M54,-255 L13.4,-271"/>
      <path d="M-54,-255 L-54,-241"/>
      <path d="M54,-255 L54,-241"/>
      <path d="M-36,-295 L36,-295"/>
      <path d="M-36,-295 L-12.2,-311"/>
      <path d="M36,-295 L12.2,-311"/>
      <path d="M-36,-295 L-36,-281"/>
      <path d="M36,-295 L36,-281"/>
    </g>
    <g transform="translate(1200,470) scale(0.42)">
      <path d="M-42,0 L-15,-205 L-12,-300"/>
      <path d="M42,0 L15,-205 L12,-300"/>
      <path d="M-12,-300 L0,-315 L12,-300"/>
      <path d="M-35.2,-52 L35.2,-52"/>
      <path d="M-28.3,-104 L28.3,-104"/>
      <path d="M-21.5,-156 L21.5,-156"/>
      <path d="M-15.0,-205 L15.0,-205"/>
      <path d="M-13.6,-250 L13.6,-250"/>
      <path d="M-12.0,-300 L12.0,-300"/>
      <path d="M-42.0,0 L35.2,-52"/>
      <path d="M42.0,0 L-35.2,-52"/>
      <path d="M-35.2,-52 L28.3,-104"/>
      <path d="M35.2,-52 L-28.3,-104"/>
      <path d="M-28.3,-104 L21.5,-156"/>
      <path d="M28.3,-104 L-21.5,-156"/>
      <path d="M-21.5,-156 L15.0,-205"/>
      <path d="M21.5,-156 L-15.0,-205"/>
      <path d="M-15.0,-205 L13.6,-250"/>
      <path d="M15.0,-205 L-13.6,-250"/>
      <path d="M-13.6,-250 L12.0,-300"/>
      <path d="M13.6,-250 L-12.0,-300"/>
      <path d="M-70,-215 L70,-215"/>
      <path d="M-70,-215 L-14.7,-231"/>
      <path d="M70,-215 L14.7,-231"/>
      <path d="M-70,-215 L-70,-201"/>
      <path d="M70,-215 L70,-201"/>
      <path d="M-54,-255 L54,-255"/>
      <path d="M-54,-255 L-13.4,-271"/>
      <path d="M54,-255 L13.4,-271"/>
      <path d="M-54,-255 L-54,-241"/>
      <path d="M54,-255 L54,-241"/>
      <path d="M-36,-295 L36,-295"/>
      <path d="M-36,-295 L-12.2,-311"/>
      <path d="M36,-295 L12.2,-311"/>
      <path d="M-36,-295 L-36,-281"/>
      <path d="M36,-295 L36,-281"/>
    </g>
    <g transform="translate(1500,470) scale(0.42)">
      <path d="M-42,0 L-15,-205 L-12,-300"/>
      <path d="M42,0 L15,-205 L12,-300"/>
      <path d="M-12,-300 L0,-315 L12,-300"/>
      <path d="M-35.2,-52 L35.2,-52"/>
      <path d="M-28.3,-104 L28.3,-104"/>
      <path d="M-21.5,-156 L21.5,-156"/>
      <path d="M-15.0,-205 L15.0,-205"/>
      <path d="M-13.6,-250 L13.6,-250"/>
      <path d="M-12.0,-300 L12.0,-300"/>
      <path d="M-42.0,0 L35.2,-52"/>
      <path d="M42.0,0 L-35.2,-52"/>
      <path d="M-35.2,-52 L28.3,-104"/>
      <path d="M35.2,-52 L-28.3,-104"/>
      <path d="M-28.3,-104 L21.5,-156"/>
      <path d="M28.3,-104 L-21.5,-156"/>
      <path d="M-21.5,-156 L15.0,-205"/>
      <path d="M21.5,-156 L-15.0,-205"/>
      <path d="M-15.0,-205 L13.6,-250"/>
      <path d="M15.0,-205 L-13.6,-250"/>
      <path d="M-13.6,-250 L12.0,-300"/>
      <path d="M13.6,-250 L-12.0,-300"/>
      <path d="M-70,-215 L70,-215"/>
      <path d="M-70,-215 L-14.7,-231"/>
      <path d="M70,-215 L14.7,-231"/>
      <path d="M-70,-215 L-70,-201"/>
      <path d="M70,-215 L70,-201"/>
      <path d="M-54,-255 L54,-255"/>
      <path d="M-54,-255 L-13.4,-271"/>
      <path d="M54,-255 L13.4,-271"/>
      <path d="M-54,-255 L-54,-241"/>
      <path d="M54,-255 L54,-241"/>
      <path d="M-36,-295 L36,-295"/>
      <path d="M-36,-295 L-12.2,-311"/>
      <path d="M36,-295 L12.2,-311"/>
      <path d="M-36,-295 L-36,-281"/>
      <path d="M36,-295 L36,-281"/>
    </g>
  </g>
  <g class="torres-frente" opacity="0.6" stroke-width="3.4">
    <path d="M-440.0,299.3 Q-240.0,352.3 -40.0,299.3"/>
    <path d="M-494.6,388.2 Q-294.6,469.3 -94.6,388.2"/>
    <path d="M-385.4,388.2 Q-185.4,469.3 14.6,388.2"/>
    <path d="M-482.1,357.0 Q-282.1,438.1 -82.1,357.0"/>
    <path d="M-397.9,357.0 Q-197.9,438.1 2.1,357.0"/>
    <path d="M-468.1,325.8 Q-268.1,406.9 -68.1,325.8"/>
    <path d="M-411.9,325.8 Q-211.9,406.9 -11.9,325.8"/>
    <path d="M-40.0,299.3 Q160.0,352.3 360.0,299.3"/>
    <path d="M-94.6,388.2 Q105.4,469.3 305.4,388.2"/>
    <path d="M14.6,388.2 Q214.6,469.3 414.6,388.2"/>
    <path d="M-82.1,357.0 Q117.9,438.1 317.9,357.0"/>
    <path d="M2.1,357.0 Q202.1,438.1 402.1,357.0"/>
    <path d="M-68.1,325.8 Q131.9,406.9 331.9,325.8"/>
    <path d="M-11.9,325.8 Q188.1,406.9 388.1,325.8"/>
    <path d="M360.0,299.3 Q560.0,352.3 760.0,299.3"/>
    <path d="M305.4,388.2 Q505.4,469.3 705.4,388.2"/>
    <path d="M414.6,388.2 Q614.6,469.3 814.6,388.2"/>
    <path d="M317.9,357.0 Q517.9,438.1 717.9,357.0"/>
    <path d="M402.1,357.0 Q602.1,438.1 802.1,357.0"/>
    <path d="M331.9,325.8 Q531.9,406.9 731.9,325.8"/>
    <path d="M388.1,325.8 Q588.1,406.9 788.1,325.8"/>
    <path d="M760.0,299.3 Q960.0,352.3 1160.0,299.3"/>
    <path d="M705.4,388.2 Q905.4,469.3 1105.4,388.2"/>
    <path d="M814.6,388.2 Q1014.6,469.3 1214.6,388.2"/>
    <path d="M717.9,357.0 Q917.9,438.1 1117.9,357.0"/>
    <path d="M802.1,357.0 Q1002.1,438.1 1202.1,357.0"/>
    <path d="M731.9,325.8 Q931.9,406.9 1131.9,325.8"/>
    <path d="M788.1,325.8 Q988.1,406.9 1188.1,325.8"/>
    <path d="M1160.0,299.3 Q1360.0,352.3 1560.0,299.3"/>
    <path d="M1105.4,388.2 Q1305.4,469.3 1505.4,388.2"/>
    <path d="M1214.6,388.2 Q1414.6,469.3 1614.6,388.2"/>
    <path d="M1117.9,357.0 Q1317.9,438.1 1517.9,357.0"/>
    <path d="M1202.1,357.0 Q1402.1,438.1 1602.1,357.0"/>
    <path d="M1131.9,325.8 Q1331.9,406.9 1531.9,325.8"/>
    <path d="M1188.1,325.8 Q1388.1,406.9 1588.1,325.8"/>
    <g transform="translate(-440,545) scale(0.78)">
      <path d="M-42,0 L-15,-205 L-12,-300"/>
      <path d="M42,0 L15,-205 L12,-300"/>
      <path d="M-12,-300 L0,-315 L12,-300"/>
      <path d="M-35.2,-52 L35.2,-52"/>
      <path d="M-28.3,-104 L28.3,-104"/>
      <path d="M-21.5,-156 L21.5,-156"/>
      <path d="M-15.0,-205 L15.0,-205"/>
      <path d="M-13.6,-250 L13.6,-250"/>
      <path d="M-12.0,-300 L12.0,-300"/>
      <path d="M-42.0,0 L35.2,-52"/>
      <path d="M42.0,0 L-35.2,-52"/>
      <path d="M-35.2,-52 L28.3,-104"/>
      <path d="M35.2,-52 L-28.3,-104"/>
      <path d="M-28.3,-104 L21.5,-156"/>
      <path d="M28.3,-104 L-21.5,-156"/>
      <path d="M-21.5,-156 L15.0,-205"/>
      <path d="M21.5,-156 L-15.0,-205"/>
      <path d="M-15.0,-205 L13.6,-250"/>
      <path d="M15.0,-205 L-13.6,-250"/>
      <path d="M-13.6,-250 L12.0,-300"/>
      <path d="M13.6,-250 L-12.0,-300"/>
      <path d="M-70,-215 L70,-215"/>
      <path d="M-70,-215 L-14.7,-231"/>
      <path d="M70,-215 L14.7,-231"/>
      <path d="M-70,-215 L-70,-201"/>
      <path d="M70,-215 L70,-201"/>
      <path d="M-54,-255 L54,-255"/>
      <path d="M-54,-255 L-13.4,-271"/>
      <path d="M54,-255 L13.4,-271"/>
      <path d="M-54,-255 L-54,-241"/>
      <path d="M54,-255 L54,-241"/>
      <path d="M-36,-295 L36,-295"/>
      <path d="M-36,-295 L-12.2,-311"/>
      <path d="M36,-295 L12.2,-311"/>
      <path d="M-36,-295 L-36,-281"/>
      <path d="M36,-295 L36,-281"/>
    </g>
    <g transform="translate(-40,545) scale(0.78)">
      <path d="M-42,0 L-15,-205 L-12,-300"/>
      <path d="M42,0 L15,-205 L12,-300"/>
      <path d="M-12,-300 L0,-315 L12,-300"/>
      <path d="M-35.2,-52 L35.2,-52"/>
      <path d="M-28.3,-104 L28.3,-104"/>
      <path d="M-21.5,-156 L21.5,-156"/>
      <path d="M-15.0,-205 L15.0,-205"/>
      <path d="M-13.6,-250 L13.6,-250"/>
      <path d="M-12.0,-300 L12.0,-300"/>
      <path d="M-42.0,0 L35.2,-52"/>
      <path d="M42.0,0 L-35.2,-52"/>
      <path d="M-35.2,-52 L28.3,-104"/>
      <path d="M35.2,-52 L-28.3,-104"/>
      <path d="M-28.3,-104 L21.5,-156"/>
      <path d="M28.3,-104 L-21.5,-156"/>
      <path d="M-21.5,-156 L15.0,-205"/>
      <path d="M21.5,-156 L-15.0,-205"/>
      <path d="M-15.0,-205 L13.6,-250"/>
      <path d="M15.0,-205 L-13.6,-250"/>
      <path d="M-13.6,-250 L12.0,-300"/>
      <path d="M13.6,-250 L-12.0,-300"/>
      <path d="M-70,-215 L70,-215"/>
      <path d="M-70,-215 L-14.7,-231"/>
      <path d="M70,-215 L14.7,-231"/>
      <path d="M-70,-215 L-70,-201"/>
      <path d="M70,-215 L70,-201"/>
      <path d="M-54,-255 L54,-255"/>
      <path d="M-54,-255 L-13.4,-271"/>
      <path d="M54,-255 L13.4,-271"/>
      <path d="M-54,-255 L-54,-241"/>
      <path d="M54,-255 L54,-241"/>
      <path d="M-36,-295 L36,-295"/>
      <path d="M-36,-295 L-12.2,-311"/>
      <path d="M36,-295 L12.2,-311"/>
      <path d="M-36,-295 L-36,-281"/>
      <path d="M36,-295 L36,-281"/>
    </g>
    <g transform="translate(360,545) scale(0.78)">
      <path d="M-42,0 L-15,-205 L-12,-300"/>
      <path d="M42,0 L15,-205 L12,-300"/>
      <path d="M-12,-300 L0,-315 L12,-300"/>
      <path d="M-35.2,-52 L35.2,-52"/>
      <path d="M-28.3,-104 L28.3,-104"/>
      <path d="M-21.5,-156 L21.5,-156"/>
      <path d="M-15.0,-205 L15.0,-205"/>
      <path d="M-13.6,-250 L13.6,-250"/>
      <path d="M-12.0,-300 L12.0,-300"/>
      <path d="M-42.0,0 L35.2,-52"/>
      <path d="M42.0,0 L-35.2,-52"/>
      <path d="M-35.2,-52 L28.3,-104"/>
      <path d="M35.2,-52 L-28.3,-104"/>
      <path d="M-28.3,-104 L21.5,-156"/>
      <path d="M28.3,-104 L-21.5,-156"/>
      <path d="M-21.5,-156 L15.0,-205"/>
      <path d="M21.5,-156 L-15.0,-205"/>
      <path d="M-15.0,-205 L13.6,-250"/>
      <path d="M15.0,-205 L-13.6,-250"/>
      <path d="M-13.6,-250 L12.0,-300"/>
      <path d="M13.6,-250 L-12.0,-300"/>
      <path d="M-70,-215 L70,-215"/>
      <path d="M-70,-215 L-14.7,-231"/>
      <path d="M70,-215 L14.7,-231"/>
      <path d="M-70,-215 L-70,-201"/>
      <path d="M70,-215 L70,-201"/>
      <path d="M-54,-255 L54,-255"/>
      <path d="M-54,-255 L-13.4,-271"/>
      <path d="M54,-255 L13.4,-271"/>
      <path d="M-54,-255 L-54,-241"/>
      <path d="M54,-255 L54,-241"/>
      <path d="M-36,-295 L36,-295"/>
      <path d="M-36,-295 L-12.2,-311"/>
      <path d="M36,-295 L12.2,-311"/>
      <path d="M-36,-295 L-36,-281"/>
      <path d="M36,-295 L36,-281"/>
    </g>
    <g transform="translate(760,545) scale(0.78)">
      <path d="M-42,0 L-15,-205 L-12,-300"/>
      <path d="M42,0 L15,-205 L12,-300"/>
      <path d="M-12,-300 L0,-315 L12,-300"/>
      <path d="M-35.2,-52 L35.2,-52"/>
      <path d="M-28.3,-104 L28.3,-104"/>
      <path d="M-21.5,-156 L21.5,-156"/>
      <path d="M-15.0,-205 L15.0,-205"/>
      <path d="M-13.6,-250 L13.6,-250"/>
      <path d="M-12.0,-300 L12.0,-300"/>
      <path d="M-42.0,0 L35.2,-52"/>
      <path d="M42.0,0 L-35.2,-52"/>
      <path d="M-35.2,-52 L28.3,-104"/>
      <path d="M35.2,-52 L-28.3,-104"/>
      <path d="M-28.3,-104 L21.5,-156"/>
      <path d="M28.3,-104 L-21.5,-156"/>
      <path d="M-21.5,-156 L15.0,-205"/>
      <path d="M21.5,-156 L-15.0,-205"/>
      <path d="M-15.0,-205 L13.6,-250"/>
      <path d="M15.0,-205 L-13.6,-250"/>
      <path d="M-13.6,-250 L12.0,-300"/>
      <path d="M13.6,-250 L-12.0,-300"/>
      <path d="M-70,-215 L70,-215"/>
      <path d="M-70,-215 L-14.7,-231"/>
      <path d="M70,-215 L14.7,-231"/>
      <path d="M-70,-215 L-70,-201"/>
      <path d="M70,-215 L70,-201"/>
      <path d="M-54,-255 L54,-255"/>
      <path d="M-54,-255 L-13.4,-271"/>
      <path d="M54,-255 L13.4,-271"/>
      <path d="M-54,-255 L-54,-241"/>
      <path d="M54,-255 L54,-241"/>
      <path d="M-36,-295 L36,-295"/>
      <path d="M-36,-295 L-12.2,-311"/>
      <path d="M36,-295 L12.2,-311"/>
      <path d="M-36,-295 L-36,-281"/>
      <path d="M36,-295 L36,-281"/>
    </g>
    <g transform="translate(1160,545) scale(0.78)">
      <path d="M-42,0 L-15,-205 L-12,-300"/>
      <path d="M42,0 L15,-205 L12,-300"/>
      <path d="M-12,-300 L0,-315 L12,-300"/>
      <path d="M-35.2,-52 L35.2,-52"/>
      <path d="M-28.3,-104 L28.3,-104"/>
      <path d="M-21.5,-156 L21.5,-156"/>
      <path d="M-15.0,-205 L15.0,-205"/>
      <path d="M-13.6,-250 L13.6,-250"/>
      <path d="M-12.0,-300 L12.0,-300"/>
      <path d="M-42.0,0 L35.2,-52"/>
      <path d="M42.0,0 L-35.2,-52"/>
      <path d="M-35.2,-52 L28.3,-104"/>
      <path d="M35.2,-52 L-28.3,-104"/>
      <path d="M-28.3,-104 L21.5,-156"/>
      <path d="M28.3,-104 L-21.5,-156"/>
      <path d="M-21.5,-156 L15.0,-205"/>
      <path d="M21.5,-156 L-15.0,-205"/>
      <path d="M-15.0,-205 L13.6,-250"/>
      <path d="M15.0,-205 L-13.6,-250"/>
      <path d="M-13.6,-250 L12.0,-300"/>
      <path d="M13.6,-250 L-12.0,-300"/>
      <path d="M-70,-215 L70,-215"/>
      <path d="M-70,-215 L-14.7,-231"/>
      <path d="M70,-215 L14.7,-231"/>
      <path d="M-70,-215 L-70,-201"/>
      <path d="M70,-215 L70,-201"/>
      <path d="M-54,-255 L54,-255"/>
      <path d="M-54,-255 L-13.4,-271"/>
      <path d="M54,-255 L13.4,-271"/>
      <path d="M-54,-255 L-54,-241"/>
      <path d="M54,-255 L54,-241"/>
      <path d="M-36,-295 L36,-295"/>
      <path d="M-36,-295 L-12.2,-311"/>
      <path d="M36,-295 L12.2,-311"/>
      <path d="M-36,-295 L-36,-281"/>
      <path d="M36,-295 L36,-281"/>
    </g>
    <g transform="translate(1560,545) scale(0.78)">
      <path d="M-42,0 L-15,-205 L-12,-300"/>
      <path d="M42,0 L15,-205 L12,-300"/>
      <path d="M-12,-300 L0,-315 L12,-300"/>
      <path d="M-35.2,-52 L35.2,-52"/>
      <path d="M-28.3,-104 L28.3,-104"/>
      <path d="M-21.5,-156 L21.5,-156"/>
      <path d="M-15.0,-205 L15.0,-205"/>
      <path d="M-13.6,-250 L13.6,-250"/>
      <path d="M-12.0,-300 L12.0,-300"/>
      <path d="M-42.0,0 L35.2,-52"/>
      <path d="M42.0,0 L-35.2,-52"/>
      <path d="M-35.2,-52 L28.3,-104"/>
      <path d="M35.2,-52 L-28.3,-104"/>
      <path d="M-28.3,-104 L21.5,-156"/>
      <path d="M28.3,-104 L-21.5,-156"/>
      <path d="M-21.5,-156 L15.0,-205"/>
      <path d="M21.5,-156 L-15.0,-205"/>
      <path d="M-15.0,-205 L13.6,-250"/>
      <path d="M15.0,-205 L-13.6,-250"/>
      <path d="M-13.6,-250 L12.0,-300"/>
      <path d="M13.6,-250 L-12.0,-300"/>
      <path d="M-70,-215 L70,-215"/>
      <path d="M-70,-215 L-14.7,-231"/>
      <path d="M70,-215 L14.7,-231"/>
      <path d="M-70,-215 L-70,-201"/>
      <path d="M70,-215 L70,-201"/>
      <path d="M-54,-255 L54,-255"/>
      <path d="M-54,-255 L-13.4,-271"/>
      <path d="M54,-255 L13.4,-271"/>
      <path d="M-54,-255 L-54,-241"/>
      <path d="M54,-255 L54,-241"/>
      <path d="M-36,-295 L36,-295"/>
      <path d="M-36,-295 L-12.2,-311"/>
      <path d="M36,-295 L12.2,-311"/>
      <path d="M-36,-295 L-36,-281"/>
      <path d="M36,-295 L36,-281"/>
    </g>
  </g>
</svg>
